<svg width="100px" height="12px" viewBox="0 0 100 12" version="1.1" xmlns="http://www.w3.org/2000/svg" xmlns:xlink="http://www.w3.org/1999/xlink">
    <defs>
        <path d="M54,-43 C54,-40.5234273 52.9236412,-39.2678547 49.4265926,-36.8202704 C45.4236412,-34.0186047 44,-32.3579273 44,-29.002 C44,-25.6456749 45.4237771,-23.9846253 49.4265651,-21.1828738 C52.9236806,-18.7350679 54,-17.4794277 54,-15.003 C54,-12.5268899 52.9236589,-11.2715174 49.4266476,-8.8243089 C45.4236589,-6.02301741 44,-4.36255653 44,-1.007 C44,2.34929799 45.4236234,4.01019192 49.4265377,6.81223192 C52.9236234,9.26019192 54,10.5159647 54,12.993 C54,15.4691101 52.9236589,16.7244826 49.4266476,19.1716911 C45.4236589,21.9729826 44,23.6334435 44,26.989 C44,30.3464103 45.42357,32.0079537 49.4263727,34.8111165 C52.92357,37.2602037 54,38.5165769 54,40.995 C54,43.4734376 52.9234559,44.7299261 49.4264002,47.1787393 C45.4235379,49.9817437 44,51.6431626 44,55 L44,56 L46,56 L46,55 C46,52.5221846 47.0763728,51.2659439 50.5730643,48.8173857 C54.5762764,46.0141364 56,44.3524374 56,40.995 C56,37.6375897 54.57643,35.9760463 50.5736273,33.1728835 C47.07643,30.7237963 46,29.4674231 46,26.989 C46,24.5128899 47.0763411,23.2575174 50.5733524,20.8103089 C54.5763411,18.0090174 56,16.3485565 56,12.993 C56,9.63670201 54.5763766,7.97580808 50.5734623,5.17376808 C47.0763766,2.72580808 46,1.47003534 46,-1.007 C46,-3.48311014 47.0763411,-4.73848259 50.5733524,-7.1856911 C54.5763411,-9.98698259 56,-11.6474435 56,-15.003 C56,-18.3587251 54.5764088,-20.0194946 50.5739706,-22.8210012 C47.0764908,-25.2690622 46,-26.5249501 46,-29.002 C46,-31.4785727 47.0763588,-32.7341453 50.5734074,-35.1817296 C54.5763588,-37.9833953 56,-39.6440727 56,-43 L56,-44 L54,-44 L54,-43 Z" id="path-s1w6lyzi42-1"></path>
    </defs>
    <g stroke="none" stroke-width="1" fill="none" fill-rule="evenodd">
        <g transform="translate(-670.000000, -1062.000000)">
            <g id="Illustrations/wavyLine" transform="translate(720.000000, 1068.000000) rotate(-180.000000) translate(-720.000000, -1068.000000) translate(670.000000, 1062.000000)">
                <mask id="mask-s1w6lyzi42-2" fill="white">
                    <use xlink:href="#path-s1w6lyzi42-1"></use>
                </mask>
                <use id="Mask" fill="currentColor" fill-rule="nonzero" transform="translate(50.000000, 6.000000) scale(-1, -1) rotate(-270.000000) translate(-50.000000, -6.000000) " xlink:href="#path-s1w6lyzi42-1"></use>
            </g>
        </g>
    </g>
</svg>
